<?xml version="1.0" encoding="UTF-8"?>
<svg id="Layer_1" data-name="Layer 1" xmlns="http://www.w3.org/2000/svg" viewBox="0 0 495.01 517.51">
  <defs>
    <style>
      .cls-1 {
        fill: #e52821;
        stroke-width: 0px;
      }
    </style>
  </defs>
  <path class="cls-1" d="M376.42,170.25c-2.62-27.21-22.4-54.26-48.13-62.12-20.01-6.12-38.79-2.82-56.78,6.84-8.9,4.79-18.02,8.23-28.34,8.41-11.76.21-21.28-5.52-31.27-10.44-23.52-11.58-46.75-10.97-68.61,3.85-24.24,16.44-34.26,43.38-30.54,68.79,2.92,20.05,14.4,39.14,34.2,51.36,14.87,9.18,31.36,14.35,47.58,20.27,13.73,5.02,27.67,9.8,37.31,22.55.55-1.56.95-3.08.98-4.53.02-.47,0-.94-.07-1.4-1.86-12.73-10.4-20.87-20-28.02-7.73-5.75-15.88-10.92-23.86-16.34-14.81-10.07-28.59-21.22-38.19-36.69-3.77-6.08-6.54-12.46-7.67-19.32v-.03c-.45-2.73-.64-5.54-.53-8.43.37-9.99,6.33-18.49,15.13-20.94,4.55,12.48,12.16,22.99,21.43,32.48,17,17.42,38.41,28.21,59.3,39.82.26.14.53.27.82.39,2.73,1.11,6.74,1.13,9.59-.01.23-.09.45-.19.67-.3,8.89-4.44,17.35-9.79,25.79-15.1,18.69-11.75,36.36-24.71,48.11-44.05,2.56-4.19,4.68-8.65,7.03-13.04,8.17,3.05,12.82,8.69,14.35,17.14.22,1.25.38,2.48.47,3.71.61,8.04-1.56,15.56-5.2,22.76-7.79,15.38-20.16,26.69-33.53,37.03-12.5,9.66-25.33,18.89-37.62,28.8-10.79,8.71-22.63,18.46-28.42,37.14-4.11,13.26-1.5,55.5,3.57,64.45,5.48-9.53,5.15-42.69,13.65-57.62,1.27-2.24,2.64-4.27,4.07-6.13,6.82-8.87,15.1-13.8,21.47-17.55,17.44-9.98,35.46-19.1,52.14-30.21,20.71-13.81,36.27-31.86,40.62-57.84.86-5.14.99-10.41.48-15.68ZM225.11,193.2c-22.63-8.45-33.9-23.4-28.85-38.7,15.95,4.07,29.48,26.15,28.85,38.7ZM262.92,193.2c-.63-12.55,12.9-34.63,28.85-38.7,5.05,15.3-6.22,30.25-28.85,38.7Z"/>
  <path class="cls-1" d="M439.31,224.19c-1.79.32-3.69.68-5.22,1.56-7.66,4.41-15.54,8.55-22.72,13.65-7.88,5.6-11.58,14.31-14.79,23.19-2.82,7.79-5.83,15.53-9.04,23.17-.58,1.39-2.39,2.44-3.86,3.24-6.93,3.79-14.93,6.3-20.73,11.36-16.82,14.7-35.78,25.1-56.68,32.59-23.54,8.44-43.26,21.92-55.13,44.81-2.58,4.96-4.58,10.23-7.15,16.03-2.57-5.8-4.57-11.07-7.14-16.03-11.88-22.89-31.6-36.37-55.14-44.81-20.89-7.49-39.85-17.89-56.68-32.59-5.79-5.06-13.8-7.57-20.73-11.36-1.47-.8-3.28-1.85-3.86-3.24-3.21-7.64-6.22-15.38-9.04-23.17-3.21-8.88-6.91-17.59-14.79-23.19-7.18-5.1-15.06-9.24-22.72-13.65-1.53-.88-3.43-1.24-5.21-1.56-9.24-1.65-14.8,1.78-14.83,9.72,0,1.13.1,2.35.33,3.67,5.7,33.12,12.78,65.95,27.97,96.31,16.52,33,43.05,55.17,76.6,69.56,10.69,4.59,21.41,9.14,31.82,14.29,10.81,5.35,20.05,12.56,24.67,24.34.11.29.27.56.48.79.24.27.45.49.65.69,1.26,1.2,3.3,1.14,4.41-.2.12-.14.27-.45.4-.82.22-.61.39-1.39.34-1.95-.55-6.03-1.6-9.75-4.15-14.29-5.66-10.09-15.49-15.83-25.6-20.67-11.68-5.6-23.8-10.27-35.42-15.98-35.66-17.51-60.08-45.18-72.27-82.98-7.13-22.12-12.92-44.67-19.27-67.04l-.13-.48-.17-.6c-.36-1.25.51-2.51,1.81-2.67,4.81-.56,8.86,3.32,10.77,5.89,5.19,7.01,8.22,15.47,11.56,23.54,4.31,10.41,7.86,21.14,11.85,31.69,10.72,28.3,31.99,43.96,57.64,57.06.93.47,3.3,1.12,4.52,1.15.73.02,1.36-.01,1.84-.13,1.05-.25,1.45-.89.89-2.16-.59-1.34-3.79-3.92-4.75-4.63-5.18-3.85-9.05-6.08-14.15-10.04-8.77-6.81-17.41-13.86-25.51-21.44-1.19-1.11-4.47-4.76-5.6-6.29-3.91-5.31-.27-8.97,4.75-10.25,3.11-.79,6.75-.67,9.46.54.97.43,5.64,3.2,7.39,4.57,4.16,3,5.69,3.94,9.54,7.33,13.91,12.27,27.47,18.84,44.84,25.17,15.68,5.7,30.9,12.21,43.27,23.99,15.75,14.99,23.82,33.68,27.16,54.78.28,1.8.89,3.93,1.84,5.46.17.28.58.27.76,0,.58-.86,1.04-1.9,1.38-3.29,0-.01,0-.02,0-.02.16-.64.3-1.35.41-2.15.05-.33.11-.65.16-.97.04-.21.07-.42.11-.63,3.49-20.44,11.54-38.57,26.89-53.18,12.37-11.78,27.6-18.29,43.27-23.99,17.37-6.33,30.93-12.9,44.84-25.17,3.85-3.39,5.38-4.33,9.55-7.33,1.74-1.37,6.41-4.14,7.38-4.57,7.09-3.16,20.55,1.12,14.21,9.71-.14.18-.3.4-.5.64-1.39,1.73-4.05,4.67-5.09,5.65-8.11,7.58-16.75,14.63-25.52,21.44-5.1,3.96-8.96,6.19-14.15,10.04-.96.71-4.16,3.29-4.75,4.63-.47,1.06-.27,1.68.42,2,.52.24,1.31.32,2.31.29,1.22-.03,3.59-.68,4.52-1.15,25.65-13.1,46.92-28.76,57.64-57.06,4-10.55,7.54-21.28,11.85-31.69,3.35-8.07,6.37-16.53,11.57-23.54,1.91-2.57,5.95-6.45,10.76-5.89,1.3.16,2.17,1.42,1.82,2.67l-.3,1.08c-.14.49-.28.99-.42,1.48-6.2,21.88-11.89,43.93-18.86,65.56-12.19,37.8-36.61,65.47-72.26,82.98-11.62,5.71-23.75,10.38-35.43,15.98-10.1,4.84-19.94,10.58-25.6,20.67-2.54,4.54-3.6,8.26-4.15,14.29-.02.22,0,.48.03.74h0c.12.83.47,1.75.71,2.03,1.11,1.34,3.15,1.4,4.42.2.2-.2.41-.42.65-.69.2-.23.36-.5.48-.79,4.61-11.78,13.86-18.99,24.66-24.34,10.41-5.15,21.14-9.7,31.82-14.29,33.55-14.39,60.08-36.56,76.6-69.56,12.78-25.55,19.82-52.84,25.13-80.58.19-1.03.39-2.06.57-3.09.79-4.2,1.54-8.42,2.27-12.64,1.81-10.52-3.93-15.28-14.49-13.39ZM89.08,297.81c-.4-.33-1.13-1.87-2.08-4.23-3.62-9.04-10.41-30.12-13.99-41.12-.1-.37-.15-.65-.16-.86.01,0,0,0,0,0-.03-.94.7-.39,1.4.38,9.93,10.91,19.32,36.15,21.27,41.08-1.65.68-5.15,1.88-6.44,4.76ZM413.94,252.46c-1.36,4.18-2.72,8.36-4.08,12.56-3.57,10.84-7.75,23.33-10.22,29.31-.79,1.93-1.41,3.19-1.77,3.48-1.29-2.88-4.79-4.08-6.44-4.76,1.73-4.37,9.28-24.66,17.9-36.82,1.01-1.47,2.13-2.9,3.37-4.26.86-.94,1.77-1.55,1.24.49Z"/>
  <path class="cls-1" d="M409.86,265.02c-3.16,9.74-6.36,19.58-9.67,29.76-.19-.16-.38-.31-.55-.45,2.47-5.98,6.65-18.47,10.22-29.31Z"/>
</svg>